<svg width="312" height="79" viewBox="0 0 312 79" fill="none" xmlns="http://www.w3.org/2000/svg">
<mask id="path-1-inside-1" fill="white">
<path d="M45.36 6.36C45.1467 8.38667 44.9867 10.36 44.88 12.28C44.8267 14.1467 44.8 15.5867 44.8 16.6C44.8 17.88 44.8267 19.08 44.88 20.2C44.9333 21.32 44.9867 22.3067 45.04 23.16H43.2C42.8267 19.4267 42.32 16.4933 41.68 14.36C41.04 12.1733 39.92 10.6 38.32 9.64C36.72 8.68 34.24 8.2 30.88 8.2H26.56V53.72C26.56 55.8533 26.7467 57.4533 27.12 58.52C27.5467 59.5867 28.3467 60.3067 29.52 60.68C30.6933 61.0533 32.4 61.2933 34.64 61.4V63C33.2533 62.8933 31.4933 62.84 29.36 62.84C27.2267 62.7867 25.0667 62.76 22.88 62.76C20.48 62.76 18.2133 62.7867 16.08 62.84C14 62.84 12.32 62.8933 11.04 63V61.4C13.28 61.2933 14.9867 61.0533 16.16 60.68C17.3333 60.3067 18.1067 59.5867 18.48 58.52C18.9067 57.4533 19.12 55.8533 19.12 53.72V8.2H14.8C11.4933 8.2 9.01334 8.68 7.36001 9.64C5.76001 10.6 4.64001 12.1733 4.00001 14.36C3.36001 16.4933 2.85334 19.4267 2.48001 23.16H0.640007C0.746674 22.3067 0.800007 21.32 0.800007 20.2C0.853341 19.08 0.880007 17.88 0.880007 16.6C0.880007 15.5867 0.826674 14.1467 0.720007 12.28C0.666674 10.36 0.533341 8.38667 0.320007 6.36C2.56001 6.41334 4.98667 6.46667 7.60001 6.52C10.2667 6.57333 12.9333 6.6 15.6 6.6C18.2667 6.6 20.6933 6.6 22.88 6.6C25.0667 6.6 27.4667 6.6 30.08 6.6C32.7467 6.6 35.4133 6.57333 38.08 6.52C40.7467 6.46667 43.1733 6.41334 45.36 6.36Z"/>
<path d="M62.0988 0.359999V30.28C63.4854 26.6533 65.4054 24.1467 67.8588 22.76C70.3654 21.3733 72.9788 20.68 75.6988 20.68C77.7254 20.68 79.4054 20.9467 80.7388 21.48C82.1254 22.0133 83.2721 22.76 84.1788 23.72C85.1921 24.7867 85.9121 26.12 86.3388 27.72C86.7654 29.32 86.9788 31.48 86.9788 34.2V55.56C86.9788 57.8 87.4321 59.32 88.3388 60.12C89.2988 60.92 90.8721 61.32 93.0588 61.32V63C92.1521 62.9467 90.7654 62.8933 88.8988 62.84C87.0321 62.7333 85.2188 62.68 83.4588 62.68C81.6988 62.68 79.9654 62.7333 78.2588 62.84C76.6054 62.8933 75.3521 62.9467 74.4988 63V61.32C76.4188 61.32 77.7788 60.92 78.5788 60.12C79.3788 59.32 79.7788 57.8 79.7788 55.56V32.44C79.7788 30.7867 79.6454 29.2667 79.3788 27.88C79.1121 26.4933 78.4988 25.3733 77.5388 24.52C76.6321 23.6667 75.2188 23.24 73.2988 23.24C70.0454 23.24 67.3521 24.6 65.2188 27.32C63.1388 29.9867 62.0988 33.4533 62.0988 37.72V55.56C62.0988 57.8 62.4988 59.32 63.2988 60.12C64.0988 60.92 65.4588 61.32 67.3788 61.32V63C66.5254 62.9467 65.2454 62.8933 63.5388 62.84C61.8854 62.7333 60.1788 62.68 58.4188 62.68C56.6588 62.68 54.8454 62.7333 52.9788 62.84C51.1121 62.8933 49.7254 62.9467 48.8188 63V61.32C51.0054 61.32 52.5521 60.92 53.4588 60.12C54.4188 59.32 54.8988 57.8 54.8988 55.56V9.96C54.8988 7.56 54.4721 5.8 53.6188 4.68C52.7654 3.50666 51.1654 2.92 48.8188 2.92V1.24C50.5254 1.4 52.1788 1.48 53.7788 1.48C55.3254 1.48 56.7921 1.4 58.1788 1.24C59.6188 1.02667 60.9254 0.733334 62.0988 0.359999Z"/>
<path d="M116.01 20.68C120.703 20.68 124.357 22.12 126.97 25C129.637 27.8267 130.97 32.2533 130.97 38.28H102.73L102.65 36.76H123.29C123.397 34.1467 123.183 31.7467 122.65 29.56C122.117 27.32 121.263 25.5333 120.09 24.2C118.97 22.8667 117.503 22.2 115.69 22.2C113.237 22.2 111.05 23.4267 109.13 25.88C107.263 28.3333 106.143 32.2267 105.77 37.56L106.01 37.88C105.903 38.68 105.823 39.56 105.77 40.52C105.717 41.48 105.69 42.44 105.69 43.4C105.69 47.0267 106.277 50.1467 107.45 52.76C108.623 55.3733 110.143 57.3733 112.01 58.76C113.93 60.0933 115.903 60.76 117.93 60.76C120.33 60.76 122.543 60.1733 124.57 59C126.597 57.8267 128.303 55.7467 129.69 52.76L131.29 53.4C130.703 55.16 129.743 56.8667 128.41 58.52C127.077 60.1733 125.397 61.5333 123.37 62.6C121.343 63.6133 118.997 64.12 116.33 64.12C112.49 64.12 109.183 63.24 106.41 61.48C103.69 59.72 101.583 57.2933 100.09 54.2C98.65 51.0533 97.93 47.4533 97.93 43.4C97.93 38.7067 98.6767 34.68 100.17 31.32C101.663 27.9067 103.77 25.2933 106.49 23.48C109.21 21.6133 112.383 20.68 116.01 20.68Z"/>
<path d="M158.001 6.36C159.121 6.41334 160.587 6.46667 162.401 6.52C164.214 6.57333 166.001 6.6 167.761 6.6C170.267 6.6 172.667 6.57333 174.961 6.52C177.254 6.46667 178.881 6.44 179.841 6.44C185.441 6.44 189.654 7.61333 192.481 9.96C195.307 12.3067 196.721 15.32 196.721 19C196.721 20.8667 196.321 22.7067 195.521 24.52C194.774 26.28 193.494 27.9067 191.681 29.4C189.921 30.84 187.547 32.0133 184.561 32.92V33.08C188.774 33.6133 192.054 34.6267 194.401 36.12C196.801 37.56 198.481 39.2667 199.441 41.24C200.401 43.2133 200.881 45.2933 200.881 47.48C200.881 52.0133 199.174 55.7467 195.761 58.68C192.401 61.56 187.707 63 181.681 63C180.507 63 178.747 62.9733 176.401 62.92C174.054 62.8133 171.227 62.76 167.921 62.76C166.054 62.76 164.214 62.7867 162.401 62.84C160.587 62.84 159.121 62.8933 158.001 63V61.4C159.814 61.2933 161.174 61.08 162.081 60.76C163.041 60.44 163.681 59.8 164.001 58.84C164.321 57.88 164.481 56.44 164.481 54.52V14.84C164.481 12.8667 164.321 11.4267 164.001 10.52C163.681 9.56 163.041 8.92 162.081 8.6C161.174 8.22667 159.814 8.01333 158.001 7.96V6.36ZM177.841 7.96C175.387 7.96 173.787 8.41333 173.041 9.32C172.294 10.2267 171.921 12.0667 171.921 14.84V54.52C171.921 57.2933 172.294 59.1067 173.041 59.96C173.841 60.76 175.467 61.16 177.921 61.16C183.147 61.16 186.934 59.96 189.281 57.56C191.681 55.1067 192.881 51.64 192.881 47.16C192.881 43.0533 191.761 39.88 189.521 37.64C187.334 35.4 183.707 34.28 178.641 34.28H170.401C170.401 34.28 170.401 34.0667 170.401 33.64C170.401 33.16 170.401 32.92 170.401 32.92H177.281C180.427 32.92 182.854 32.3333 184.561 31.16C186.267 29.9333 187.441 28.3333 188.081 26.36C188.721 24.3333 189.041 22.1733 189.041 19.88C189.041 15.9333 188.161 12.9733 186.401 11C184.694 8.97333 181.841 7.96 177.841 7.96Z"/>
<path d="M218.821 0.279999V55.56C218.821 57.8 219.275 59.32 220.181 60.12C221.141 60.92 222.715 61.32 224.901 61.32V63C223.995 62.9467 222.608 62.8933 220.741 62.84C218.928 62.7333 217.088 62.68 215.221 62.68C213.408 62.68 211.568 62.7333 209.701 62.84C207.835 62.8933 206.448 62.9467 205.541 63V61.32C207.728 61.32 209.275 60.92 210.181 60.12C211.141 59.32 211.621 57.8 211.621 55.56V9.88C211.621 7.48 211.195 5.72 210.341 4.6C209.488 3.42667 207.888 2.84 205.541 2.84V1.16C207.248 1.32 208.901 1.4 210.501 1.4C212.048 1.4 213.515 1.32 214.901 1.16C216.341 0.946667 217.648 0.653334 218.821 0.279999Z"/>
<path d="M247.811 20.68C251.224 20.68 254.291 21.4267 257.011 22.92C259.731 24.4133 261.891 26.76 263.491 29.96C265.144 33.16 265.971 37.32 265.971 42.44C265.971 47.56 265.144 51.72 263.491 54.92C261.891 58.0667 259.731 60.3867 257.011 61.88C254.291 63.3733 251.224 64.12 247.811 64.12C244.451 64.12 241.384 63.3733 238.611 61.88C235.891 60.3867 233.704 58.0667 232.051 54.92C230.451 51.72 229.651 47.56 229.651 42.44C229.651 37.32 230.451 33.16 232.051 29.96C233.704 26.76 235.891 24.4133 238.611 22.92C241.384 21.4267 244.451 20.68 247.811 20.68ZM247.811 22.28C244.771 22.28 242.264 23.8533 240.291 27C238.371 30.1467 237.411 35.2933 237.411 42.44C237.411 49.5867 238.371 54.7333 240.291 57.88C242.264 60.9733 244.771 62.52 247.811 62.52C250.851 62.52 253.331 60.9733 255.251 57.88C257.224 54.7333 258.211 49.5867 258.211 42.44C258.211 35.2933 257.224 30.1467 255.251 27C253.331 23.8533 250.851 22.28 247.811 22.28Z"/>
<path d="M286.759 78.04C283.932 78.04 281.265 77.7467 278.759 77.16C276.252 76.5733 274.225 75.64 272.679 74.36C271.185 73.1333 270.439 71.56 270.439 69.64C270.439 67.7733 271.185 66.1733 272.679 64.84C274.172 63.5067 276.199 62.4933 278.759 61.8L279.239 63.08C278.065 63.4533 277.132 64.2 276.439 65.32C275.745 66.44 275.399 67.6933 275.399 69.08C275.399 71.5333 276.519 73.4 278.759 74.68C281.052 76.0133 284.012 76.68 287.639 76.68C290.039 76.68 292.385 76.36 294.679 75.72C296.972 75.1333 298.865 74.12 300.359 72.68C301.852 71.24 302.599 69.3467 302.599 67C302.599 65.24 301.959 63.8 300.679 62.68C299.452 61.5067 296.999 60.92 293.319 60.92H287.399C285.692 60.92 284.039 60.7867 282.439 60.52C280.839 60.2533 279.532 59.6933 278.519 58.84C277.505 57.9867 276.999 56.68 276.999 54.92C276.999 53.1067 277.745 51.3733 279.239 49.72C280.732 48.0133 283.479 46.28 287.479 44.52L288.439 45.24C286.625 46.2 285.052 47.1867 283.719 48.2C282.385 49.16 281.719 50.3067 281.719 51.64C281.719 53.3467 282.999 54.2 285.559 54.2H295.559C298.865 54.2 301.772 54.9467 304.279 56.44C306.839 57.88 308.119 60.28 308.119 63.64C308.119 66.1467 307.319 68.4933 305.719 70.68C304.119 72.8667 301.719 74.6267 298.519 75.96C295.372 77.3467 291.452 78.04 286.759 78.04ZM287.159 45.96C283.212 45.96 279.879 44.9467 277.159 42.92C274.492 40.8933 273.159 37.6933 273.159 33.32C273.159 28.8933 274.492 25.6933 277.159 23.72C279.879 21.6933 283.212 20.68 287.159 20.68C291.105 20.68 294.412 21.6933 297.079 23.72C299.799 25.6933 301.159 28.8933 301.159 33.32C301.159 37.6933 299.799 40.8933 297.079 42.92C294.412 44.9467 291.105 45.96 287.159 45.96ZM287.159 44.52C289.185 44.52 290.759 43.72 291.879 42.12C293.052 40.52 293.639 37.5867 293.639 33.32C293.639 29.0533 293.052 26.12 291.879 24.52C290.759 22.92 289.185 22.12 287.159 22.12C285.185 22.12 283.612 22.92 282.439 24.52C281.265 26.12 280.679 29.0533 280.679 33.32C280.679 37.5867 281.265 40.52 282.439 42.12C283.612 43.72 285.185 44.52 287.159 44.52ZM298.679 27.32L297.239 26.76C297.985 24.9467 299.265 23.3467 301.079 21.96C302.892 20.5733 304.785 19.88 306.759 19.88C308.145 19.88 309.265 20.28 310.119 21.08C310.972 21.8267 311.399 22.9733 311.399 24.52C311.399 26.1733 310.945 27.3467 310.039 28.04C309.185 28.68 308.305 29 307.399 29C306.599 29 305.852 28.7333 305.159 28.2C304.465 27.6133 304.065 26.7067 303.959 25.48C303.852 24.2533 304.225 22.68 305.079 20.76L306.119 21C303.879 21.8533 302.279 22.76 301.319 23.72C300.359 24.6267 299.479 25.8267 298.679 27.32Z"/>
</mask>
<path d="M45.36 6.36C45.1467 8.38667 44.9867 10.36 44.88 12.28C44.8267 14.1467 44.8 15.5867 44.8 16.6C44.8 17.88 44.8267 19.08 44.88 20.2C44.9333 21.32 44.9867 22.3067 45.04 23.16H43.2C42.8267 19.4267 42.32 16.4933 41.68 14.36C41.04 12.1733 39.92 10.6 38.32 9.64C36.72 8.68 34.24 8.2 30.88 8.2H26.56V53.72C26.56 55.8533 26.7467 57.4533 27.12 58.52C27.5467 59.5867 28.3467 60.3067 29.52 60.68C30.6933 61.0533 32.4 61.2933 34.64 61.4V63C33.2533 62.8933 31.4933 62.84 29.36 62.84C27.2267 62.7867 25.0667 62.76 22.88 62.76C20.48 62.76 18.2133 62.7867 16.08 62.84C14 62.84 12.32 62.8933 11.04 63V61.4C13.28 61.2933 14.9867 61.0533 16.16 60.68C17.3333 60.3067 18.1067 59.5867 18.48 58.52C18.9067 57.4533 19.12 55.8533 19.12 53.72V8.2H14.8C11.4933 8.2 9.01334 8.68 7.36001 9.64C5.76001 10.6 4.64001 12.1733 4.00001 14.36C3.36001 16.4933 2.85334 19.4267 2.48001 23.16H0.640007C0.746674 22.3067 0.800007 21.32 0.800007 20.2C0.853341 19.08 0.880007 17.88 0.880007 16.6C0.880007 15.5867 0.826674 14.1467 0.720007 12.28C0.666674 10.36 0.533341 8.38667 0.320007 6.36C2.56001 6.41334 4.98667 6.46667 7.60001 6.52C10.2667 6.57333 12.9333 6.6 15.6 6.6C18.2667 6.6 20.6933 6.6 22.88 6.6C25.0667 6.6 27.4667 6.6 30.08 6.6C32.7467 6.6 35.4133 6.57333 38.08 6.52C40.7467 6.46667 43.1733 6.41334 45.36 6.36Z" stroke="black" stroke-width="12" mask="url(#path-1-inside-1)"/>
<path d="M62.0988 0.359999V30.28C63.4854 26.6533 65.4054 24.1467 67.8588 22.76C70.3654 21.3733 72.9788 20.68 75.6988 20.68C77.7254 20.68 79.4054 20.9467 80.7388 21.48C82.1254 22.0133 83.2721 22.76 84.1788 23.72C85.1921 24.7867 85.9121 26.12 86.3388 27.72C86.7654 29.32 86.9788 31.48 86.9788 34.2V55.56C86.9788 57.8 87.4321 59.32 88.3388 60.12C89.2988 60.92 90.8721 61.32 93.0588 61.32V63C92.1521 62.9467 90.7654 62.8933 88.8988 62.84C87.0321 62.7333 85.2188 62.68 83.4588 62.68C81.6988 62.68 79.9654 62.7333 78.2588 62.84C76.6054 62.8933 75.3521 62.9467 74.4988 63V61.32C76.4188 61.32 77.7788 60.92 78.5788 60.12C79.3788 59.32 79.7788 57.8 79.7788 55.56V32.44C79.7788 30.7867 79.6454 29.2667 79.3788 27.88C79.1121 26.4933 78.4988 25.3733 77.5388 24.52C76.6321 23.6667 75.2188 23.24 73.2988 23.24C70.0454 23.24 67.3521 24.6 65.2188 27.32C63.1388 29.9867 62.0988 33.4533 62.0988 37.72V55.56C62.0988 57.8 62.4988 59.32 63.2988 60.12C64.0988 60.92 65.4588 61.32 67.3788 61.32V63C66.5254 62.9467 65.2454 62.8933 63.5388 62.84C61.8854 62.7333 60.1788 62.68 58.4188 62.68C56.6588 62.68 54.8454 62.7333 52.9788 62.84C51.1121 62.8933 49.7254 62.9467 48.8188 63V61.32C51.0054 61.32 52.5521 60.92 53.4588 60.12C54.4188 59.32 54.8988 57.8 54.8988 55.56V9.96C54.8988 7.56 54.4721 5.8 53.6188 4.68C52.7654 3.50666 51.1654 2.92 48.8188 2.92V1.24C50.5254 1.4 52.1788 1.48 53.7788 1.48C55.3254 1.48 56.7921 1.4 58.1788 1.24C59.6188 1.02667 60.9254 0.733334 62.0988 0.359999Z" stroke="black" stroke-width="12" mask="url(#path-1-inside-1)"/>
<path d="M116.01 20.68C120.703 20.68 124.357 22.12 126.97 25C129.637 27.8267 130.97 32.2533 130.97 38.28H102.73L102.65 36.76H123.29C123.397 34.1467 123.183 31.7467 122.65 29.56C122.117 27.32 121.263 25.5333 120.09 24.2C118.97 22.8667 117.503 22.2 115.69 22.2C113.237 22.2 111.05 23.4267 109.13 25.88C107.263 28.3333 106.143 32.2267 105.77 37.56L106.01 37.88C105.903 38.68 105.823 39.56 105.77 40.52C105.717 41.48 105.69 42.44 105.69 43.4C105.69 47.0267 106.277 50.1467 107.45 52.76C108.623 55.3733 110.143 57.3733 112.01 58.76C113.93 60.0933 115.903 60.76 117.93 60.76C120.33 60.76 122.543 60.1733 124.57 59C126.597 57.8267 128.303 55.7467 129.69 52.76L131.29 53.4C130.703 55.16 129.743 56.8667 128.41 58.52C127.077 60.1733 125.397 61.5333 123.37 62.6C121.343 63.6133 118.997 64.12 116.33 64.12C112.49 64.12 109.183 63.24 106.41 61.48C103.69 59.72 101.583 57.2933 100.09 54.2C98.65 51.0533 97.93 47.4533 97.93 43.4C97.93 38.7067 98.6767 34.68 100.17 31.32C101.663 27.9067 103.77 25.2933 106.49 23.48C109.21 21.6133 112.383 20.68 116.01 20.68Z" stroke="black" stroke-width="12" mask="url(#path-1-inside-1)"/>
<path d="M158.001 6.36C159.121 6.41334 160.587 6.46667 162.401 6.52C164.214 6.57333 166.001 6.6 167.761 6.6C170.267 6.6 172.667 6.57333 174.961 6.52C177.254 6.46667 178.881 6.44 179.841 6.44C185.441 6.44 189.654 7.61333 192.481 9.96C195.307 12.3067 196.721 15.32 196.721 19C196.721 20.8667 196.321 22.7067 195.521 24.52C194.774 26.28 193.494 27.9067 191.681 29.4C189.921 30.84 187.547 32.0133 184.561 32.92V33.08C188.774 33.6133 192.054 34.6267 194.401 36.12C196.801 37.56 198.481 39.2667 199.441 41.24C200.401 43.2133 200.881 45.2933 200.881 47.48C200.881 52.0133 199.174 55.7467 195.761 58.68C192.401 61.56 187.707 63 181.681 63C180.507 63 178.747 62.9733 176.401 62.92C174.054 62.8133 171.227 62.76 167.921 62.76C166.054 62.76 164.214 62.7867 162.401 62.84C160.587 62.84 159.121 62.8933 158.001 63V61.4C159.814 61.2933 161.174 61.08 162.081 60.76C163.041 60.44 163.681 59.8 164.001 58.84C164.321 57.88 164.481 56.44 164.481 54.52V14.84C164.481 12.8667 164.321 11.4267 164.001 10.52C163.681 9.56 163.041 8.92 162.081 8.6C161.174 8.22667 159.814 8.01333 158.001 7.96V6.36ZM177.841 7.96C175.387 7.96 173.787 8.41333 173.041 9.32C172.294 10.2267 171.921 12.0667 171.921 14.84V54.52C171.921 57.2933 172.294 59.1067 173.041 59.96C173.841 60.76 175.467 61.16 177.921 61.16C183.147 61.16 186.934 59.96 189.281 57.56C191.681 55.1067 192.881 51.64 192.881 47.16C192.881 43.0533 191.761 39.88 189.521 37.64C187.334 35.4 183.707 34.28 178.641 34.28H170.401C170.401 34.28 170.401 34.0667 170.401 33.64C170.401 33.16 170.401 32.92 170.401 32.92H177.281C180.427 32.92 182.854 32.3333 184.561 31.16C186.267 29.9333 187.441 28.3333 188.081 26.36C188.721 24.3333 189.041 22.1733 189.041 19.88C189.041 15.9333 188.161 12.9733 186.401 11C184.694 8.97333 181.841 7.96 177.841 7.96Z" stroke="black" stroke-width="12" mask="url(#path-1-inside-1)"/>
<path d="M218.821 0.279999V55.56C218.821 57.8 219.275 59.32 220.181 60.12C221.141 60.92 222.715 61.32 224.901 61.32V63C223.995 62.9467 222.608 62.8933 220.741 62.84C218.928 62.7333 217.088 62.68 215.221 62.68C213.408 62.68 211.568 62.7333 209.701 62.84C207.835 62.8933 206.448 62.9467 205.541 63V61.32C207.728 61.32 209.275 60.92 210.181 60.12C211.141 59.32 211.621 57.8 211.621 55.56V9.88C211.621 7.48 211.195 5.72 210.341 4.6C209.488 3.42667 207.888 2.84 205.541 2.84V1.16C207.248 1.32 208.901 1.4 210.501 1.4C212.048 1.4 213.515 1.32 214.901 1.16C216.341 0.946667 217.648 0.653334 218.821 0.279999Z" stroke="black" stroke-width="12" mask="url(#path-1-inside-1)"/>
<path d="M247.811 20.68C251.224 20.68 254.291 21.4267 257.011 22.92C259.731 24.4133 261.891 26.76 263.491 29.96C265.144 33.16 265.971 37.32 265.971 42.44C265.971 47.56 265.144 51.72 263.491 54.92C261.891 58.0667 259.731 60.3867 257.011 61.88C254.291 63.3733 251.224 64.12 247.811 64.12C244.451 64.12 241.384 63.3733 238.611 61.88C235.891 60.3867 233.704 58.0667 232.051 54.92C230.451 51.72 229.651 47.56 229.651 42.44C229.651 37.32 230.451 33.16 232.051 29.96C233.704 26.76 235.891 24.4133 238.611 22.92C241.384 21.4267 244.451 20.68 247.811 20.68ZM247.811 22.28C244.771 22.28 242.264 23.8533 240.291 27C238.371 30.1467 237.411 35.2933 237.411 42.44C237.411 49.5867 238.371 54.7333 240.291 57.88C242.264 60.9733 244.771 62.52 247.811 62.52C250.851 62.52 253.331 60.9733 255.251 57.88C257.224 54.7333 258.211 49.5867 258.211 42.44C258.211 35.2933 257.224 30.1467 255.251 27C253.331 23.8533 250.851 22.28 247.811 22.28Z" stroke="black" stroke-width="12" mask="url(#path-1-inside-1)"/>
<path d="M286.759 78.04C283.932 78.04 281.265 77.7467 278.759 77.16C276.252 76.5733 274.225 75.64 272.679 74.36C271.185 73.1333 270.439 71.56 270.439 69.64C270.439 67.7733 271.185 66.1733 272.679 64.84C274.172 63.5067 276.199 62.4933 278.759 61.8L279.239 63.08C278.065 63.4533 277.132 64.2 276.439 65.32C275.745 66.44 275.399 67.6933 275.399 69.08C275.399 71.5333 276.519 73.4 278.759 74.68C281.052 76.0133 284.012 76.68 287.639 76.68C290.039 76.68 292.385 76.36 294.679 75.72C296.972 75.1333 298.865 74.12 300.359 72.68C301.852 71.24 302.599 69.3467 302.599 67C302.599 65.24 301.959 63.8 300.679 62.68C299.452 61.5067 296.999 60.92 293.319 60.92H287.399C285.692 60.92 284.039 60.7867 282.439 60.52C280.839 60.2533 279.532 59.6933 278.519 58.84C277.505 57.9867 276.999 56.68 276.999 54.92C276.999 53.1067 277.745 51.3733 279.239 49.72C280.732 48.0133 283.479 46.28 287.479 44.52L288.439 45.24C286.625 46.2 285.052 47.1867 283.719 48.2C282.385 49.16 281.719 50.3067 281.719 51.64C281.719 53.3467 282.999 54.2 285.559 54.2H295.559C298.865 54.2 301.772 54.9467 304.279 56.44C306.839 57.88 308.119 60.28 308.119 63.64C308.119 66.1467 307.319 68.4933 305.719 70.68C304.119 72.8667 301.719 74.6267 298.519 75.96C295.372 77.3467 291.452 78.04 286.759 78.04ZM287.159 45.96C283.212 45.96 279.879 44.9467 277.159 42.92C274.492 40.8933 273.159 37.6933 273.159 33.32C273.159 28.8933 274.492 25.6933 277.159 23.72C279.879 21.6933 283.212 20.68 287.159 20.68C291.105 20.68 294.412 21.6933 297.079 23.72C299.799 25.6933 301.159 28.8933 301.159 33.32C301.159 37.6933 299.799 40.8933 297.079 42.92C294.412 44.9467 291.105 45.96 287.159 45.96ZM287.159 44.52C289.185 44.52 290.759 43.72 291.879 42.12C293.052 40.52 293.639 37.5867 293.639 33.32C293.639 29.0533 293.052 26.12 291.879 24.52C290.759 22.92 289.185 22.12 287.159 22.12C285.185 22.12 283.612 22.92 282.439 24.52C281.265 26.12 280.679 29.0533 280.679 33.32C280.679 37.5867 281.265 40.52 282.439 42.12C283.612 43.72 285.185 44.52 287.159 44.52ZM298.679 27.32L297.239 26.76C297.985 24.9467 299.265 23.3467 301.079 21.96C302.892 20.5733 304.785 19.88 306.759 19.88C308.145 19.88 309.265 20.28 310.119 21.08C310.972 21.8267 311.399 22.9733 311.399 24.52C311.399 26.1733 310.945 27.3467 310.039 28.04C309.185 28.68 308.305 29 307.399 29C306.599 29 305.852 28.7333 305.159 28.2C304.465 27.6133 304.065 26.7067 303.959 25.48C303.852 24.2533 304.225 22.68 305.079 20.76L306.119 21C303.879 21.8533 302.279 22.76 301.319 23.72C300.359 24.6267 299.479 25.8267 298.679 27.32Z" stroke="black" stroke-width="12" mask="url(#path-1-inside-1)"/>
</svg>
